<svg width="10" height="16" viewBox="0 0 10 16" fill="none" xmlns="http://www.w3.org/2000/svg">
<path d="M4.45016 15.1333V13.85C3.36127 13.7278 2.48905 13.3444 1.8335 12.7C1.17794 12.0556 0.844607 11.2111 0.833496 10.1667H2.70016C2.71127 10.6889 2.86683 11.15 3.16683 11.55C3.46683 11.9389 3.89461 12.2 4.45016 12.3333V8.31667C4.36127 8.29444 4.26683 8.26667 4.16683 8.23333C4.07794 8.2 3.9835 8.16667 3.8835 8.13333C2.9835 7.83333 2.30572 7.44444 1.85016 6.96667C1.40572 6.48889 1.1835 5.86111 1.1835 5.08333C1.17238 4.17222 1.46683 3.42778 2.06683 2.85C2.66683 2.27222 3.46127 1.93333 4.45016 1.83333V0.5H5.5835V1.85C6.55016 1.96111 7.32794 2.31111 7.91683 2.9C8.50572 3.48889 8.80572 4.22778 8.81683 5.11667H6.95016C6.93905 4.75 6.81683 4.40556 6.5835 4.08333C6.36127 3.75 6.02794 3.52222 5.5835 3.4V6.96667C5.67239 7 5.76127 7.03333 5.85016 7.06667C5.93905 7.08889 6.02794 7.11667 6.11683 7.15C6.69461 7.33889 7.21127 7.56667 7.66683 7.83333C8.12238 8.1 8.4835 8.45 8.75016 8.88333C9.02794 9.31667 9.16683 9.86667 9.16683 10.5333C9.16683 11.0889 9.0335 11.6111 8.76683 12.1C8.50016 12.5778 8.10016 12.9778 7.56683 13.3C7.0335 13.6222 6.37239 13.8111 5.5835 13.8667V15.1333H4.45016ZM3.01683 4.93333C3.01683 5.37778 3.14461 5.72222 3.40016 5.96667C3.65572 6.2 4.00572 6.40556 4.45016 6.58333V3.35C4.02794 3.42778 3.6835 3.60556 3.41683 3.88333C3.15016 4.15 3.01683 4.5 3.01683 4.93333ZM7.30016 10.65C7.30016 10.1056 7.13905 9.69444 6.81683 9.41667C6.49461 9.12778 6.0835 8.88889 5.5835 8.7V12.3667C6.12794 12.3 6.55016 12.1111 6.85016 11.8C7.15016 11.4889 7.30016 11.1056 7.30016 10.65Z" fill="white"/>
</svg>
