<svg width="18" height="18" viewBox="0 0 18 18" fill="none" xmlns="http://www.w3.org/2000/svg">
<path d="M17.6023 0.727436C17.6916 0.816855 17.7518 0.931267 17.7748 1.05557C17.7977 1.17987 17.7825 1.30823 17.731 1.42369L10.6598 17.3337C10.6104 17.445 10.5295 17.5394 10.4272 17.6053C10.3249 17.6713 10.2055 17.706 10.0838 17.705C9.96205 17.7041 9.84323 17.6676 9.74192 17.6001C9.64062 17.5326 9.56124 17.4369 9.51353 17.3249L6.96229 11.3674L1.00354 8.81494C0.891941 8.76694 0.796754 8.68746 0.729616 8.58622C0.662477 8.48498 0.626297 8.36636 0.625502 8.24489C0.624706 8.12341 0.659329 8.00434 0.725135 7.90222C0.790942 7.80011 0.88508 7.71939 0.996035 7.66994L16.906 0.598686C17.0213 0.547496 17.1494 0.532398 17.2735 0.555378C17.3975 0.578358 17.5117 0.63834 17.601 0.727436H17.6023Z" fill="white"/>
</svg>
