<svg width="10" height="15" viewBox="0 0 10 15" fill="none" xmlns="http://www.w3.org/2000/svg">
<path d="M5 1C5.53043 1 6.03914 1.21071 6.41421 1.58579C6.78929 1.96086 7 2.46957 7 3C7 3.53043 7 6 7 6H3V3C3 2.46957 3.21071 1.96086 3.58579 1.58579C3.96086 1.21071 4.46957 1 5 1ZM8 6V3C8 2.20435 7.68393 1.44129 7.12132 0.87868C6.55871 0.31607 5.79565 0 5 0C4.20435 0 3.44129 0.31607 2.87868 0.87868C2.31607 1.44129 2 2.20435 2 3V6C1.46957 6 0.960859 6.21071 0.585786 6.58579C0.210714 6.96086 0 7.46957 0 8V13C0 13.5304 0.210714 14.0391 0.585786 14.4142C0.960859 14.7893 1.46957 15 2 15H8C8.53043 15 9.03914 14.7893 9.41421 14.4142C9.78929 14.0391 10 13.5304 10 13V8C10 7.46957 9.78929 6.96086 9.41421 6.58579C9.03914 6.21071 8.53043 6 8 6Z" fill="#72767C"/>
</svg>
