<svg width="28" height="29" viewBox="0 0 28 29" fill="none" xmlns="http://www.w3.org/2000/svg">
<rect width="28" height="29" rx="6" fill="#2884FF"/>
<path d="M7.10075 23V6.2H12.8368C14.8048 6.2 16.4208 6.552 17.6848 7.256C18.9648 7.944 19.9088 8.92 20.5168 10.184C21.1408 11.432 21.4528 12.904 21.4528 14.6C21.4528 16.296 21.1408 17.776 20.5168 19.04C19.9088 20.288 18.9648 21.264 17.6848 21.968C16.4208 22.656 14.8048 23 12.8368 23H7.10075ZM10.1728 20.36H12.6928C14.1008 20.36 15.2128 20.136 16.0288 19.688C16.8448 19.224 17.4288 18.568 17.7808 17.72C18.1328 16.856 18.3088 15.816 18.3088 14.6C18.3088 13.4 18.1328 12.368 17.7808 11.504C17.4288 10.64 16.8448 9.976 16.0288 9.512C15.2128 9.048 14.1008 8.816 12.6928 8.816H10.1728V20.36Z" fill="white"/>
</svg>
