<svg width="18" height="18" viewBox="0 0 18 18" fill="none" xmlns="http://www.w3.org/2000/svg">
<path d="M12.0382 9.59657C12.8552 8.95379 13.4515 8.07234 13.7442 7.07486C14.0369 6.07737 14.0115 5.01346 13.6714 4.03113C13.3312 3.0488 12.6934 2.1969 11.8466 1.59395C10.9998 0.991005 9.98607 0.666992 8.94653 0.666992C7.90699 0.666992 6.89329 0.991005 6.04647 1.59395C5.19965 2.1969 4.56182 3.0488 4.22171 4.03113C3.8816 5.01346 3.85612 6.07737 4.14883 7.07486C4.44154 8.07234 5.03787 8.95379 5.85486 9.59657C4.45493 10.1574 3.23344 11.0877 2.32061 12.2882C1.40778 13.4886 0.837833 14.9143 0.67153 16.4132C0.659493 16.5227 0.669128 16.6334 0.699885 16.7391C0.730642 16.8448 0.78192 16.9434 0.85079 17.0293C0.98988 17.2028 1.19218 17.3139 1.4132 17.3382C1.63421 17.3626 1.85583 17.2981 2.0293 17.159C2.20277 17.0199 2.31389 16.8176 2.3382 16.5966C2.52118 14.9676 3.29794 13.4631 4.52005 12.3706C5.74216 11.278 7.32395 10.6741 8.9632 10.6741C10.6024 10.6741 12.1842 11.278 13.4063 12.3706C14.6285 13.4631 15.4052 14.9676 15.5882 16.5966C15.6109 16.8013 15.7086 16.9905 15.8625 17.1274C16.0163 17.2644 16.2155 17.3395 16.4215 17.3382H16.5132C16.7316 17.3131 16.9313 17.2027 17.0687 17.0309C17.206 16.8592 17.27 16.6402 17.2465 16.4216C17.0794 14.9184 16.5064 13.4891 15.5889 12.2867C14.6714 11.0844 13.444 10.1545 12.0382 9.59657ZM8.94653 9.00491C8.28726 9.00491 7.64279 8.80941 7.09463 8.44314C6.54647 8.07687 6.11922 7.55627 5.86693 6.94718C5.61464 6.3381 5.54863 5.66787 5.67725 5.02127C5.80586 4.37467 6.12333 3.78072 6.58951 3.31455C7.05568 2.84837 7.64963 2.53091 8.29623 2.40229C8.94283 2.27367 9.61306 2.33968 10.2221 2.59197C10.8312 2.84427 11.3518 3.27151 11.7181 3.81967C12.0844 4.36784 12.2799 5.0123 12.2799 5.67157C12.2799 6.55563 11.9287 7.40347 11.3036 8.0286C10.6784 8.65372 9.83059 9.00491 8.94653 9.00491Z" fill="#72767C"/>
</svg>
